<svg width="170" height="22" viewBox="0 0 170 22" fill="none" xmlns="http://www.w3.org/2000/svg">
<path d="M7.93089 14.0798H18.5059V12.3198H20.2684V5.27983H18.5059V3.51984H13.2184H7.93089H0.880859V21.1198H7.93089V14.0798ZM7.93089 7.03982H13.2184V10.5598H7.93089V7.03982Z" fill="white"/>
<path d="M22.0172 7.03982H27.3047V17.5998H22.0172V21.1198H39.6423V17.5998H34.3547V7.03982H39.6423V3.51984H22.0172V7.03982Z" fill="white"/>
<path d="M59.0229 19.3598H60.7855V14.0798H59.0229H53.7354V17.5998H48.4479V7.03982H53.7354V10.5598H60.7855V5.27983H59.0229V3.51984H48.4479H43.1604V5.27983H41.3979V19.3598H43.1604V21.1198H59.0229V19.3598Z" fill="white"/>
<path d="M69.5842 15.8398H71.3467V17.5998H73.1092V19.3598H74.8717V21.1198H83.6843V17.5998H81.9218V15.8398H80.1593V14.0798H78.3968V10.5598H80.1593V8.79981H81.9218V7.03982H83.6843V3.51984H81.9218H74.8717V5.27983H73.1092V7.03982H71.3467V8.79981H69.5842V3.51984H62.5342V21.1198H69.5842V15.8398Z" fill="white"/>
<path d="M87.2231 21.1198H104.848V17.5998H92.5106V14.0798H97.7981V10.5598H92.5106V7.03982H104.848V3.51984H87.2231V5.27983H85.4606V19.3598H87.2231V21.1198Z" fill="white"/>
<path d="M113.647 14.0798H118.934V21.1198H125.984V14.0798H124.222V10.5598H125.984V5.27983H124.222V3.51984H118.934H113.647H106.597V21.1198H113.647V14.0798ZM113.647 7.03982H118.934V10.5598H113.647V7.03982Z" fill="white"/>
<path fill-rule="evenodd" clip-rule="evenodd" d="M7.93128 21.12H0.881254V3.52007H18.5063V5.28006H20.2688V12.32H18.5063V14.08H7.93128V21.12ZM8.81254 14.96V22H0V2.64008H19.3876V4.40007H21.1363V2.64008H40.5239V4.40007H42.2795V2.64008H59.9046V4.40007H61.6533V2.64008H70.4659V6.16006H72.2284V4.40007H73.9909V2.64008H84.5659V7.92005H82.8034V9.68004H81.0409V11.44H79.2784V13.2H81.0409V14.96H82.8034V16.72H84.5659V22H73.9909V20.24H72.2284V18.48H70.4659V22H61.6533V20.24H59.9046V22H42.2795V20.24H40.5239V22H21.1363V16.72H26.4238V7.92005H21.1501V13.2H19.3876V14.96H8.81254ZM40.517 16.72V7.92005H35.2364V16.72H40.517ZM61.6533 13.2V11.44H52.8546V7.92005H49.3295V16.72H52.8546V13.2H61.6533ZM12.3376 7.92005H8.81254V9.68004H12.3376V7.92005ZM22.0176 7.04006V3.52007H39.6426V7.04006H34.3551V17.6H39.6426V21.12H22.0176V17.6H27.3051V7.04006H22.0176ZM59.0233 3.52007V5.28006H60.7858V10.56H53.7358V7.04006H48.4483V17.6H53.7358V14.08H60.7858V19.36H59.0233V21.12H43.1608V19.36H41.3983V5.28006H43.1608V3.52007H59.0233ZM69.5846 3.52007V8.80005H71.3471V7.04006H73.1096V5.28006H74.8721V3.52007H83.6847V7.04006H81.9222V8.80005H80.1597V10.56H78.3971V14.08H80.1597V15.84H81.9222V17.6H83.6847V21.12H74.8721V19.36H73.1096V17.6H71.3471V15.84H69.5846V21.12H62.5346V3.52007H69.5846ZM86.3422 22V20.24H84.5797V4.40007H86.3422V2.64008H125.104V4.40007H126.866V11.44H125.104V13.2H126.866V22H118.054V14.96H114.529V22H86.3422ZM105.716 16.72V7.92005H93.3922V9.68004H98.6797V14.96H93.3922V16.72H105.716ZM104.849 17.6V21.12H87.2234V19.36H85.4609V5.28006H87.2234V3.52007H104.849V7.04006H92.511V10.56H97.7985V14.08H92.511V17.6H104.849ZM113.647 21.12H106.597V3.52007H124.222V5.28006H125.985V10.56H124.222V14.08H125.985V21.12H118.935V14.08H113.647V21.12ZM118.054 7.92005H114.529V9.68004H118.054V7.92005ZM7.93128 7.04006V10.56H13.2188V7.04006H7.93128ZM113.647 7.04006V10.56H118.935V7.04006H113.647Z" fill="white"/>
<g filter="url(#filter0_i)">
<path d="M7.93089 11.4399H18.5059V9.6799H20.2684V2.63994H18.5059V0.879944H13.2184H7.93089H0.880859V18.4799H7.93089V11.4399ZM7.93089 4.39993H13.2184V7.91991H7.93089V4.39993Z" fill="#509F63"/>
<path d="M22.0172 4.39993H27.3047V14.9599H22.0172V18.4799H39.6423V14.9599H34.3547V4.39993H39.6423V0.879944H22.0172V4.39993Z" fill="#509F63"/>
<path d="M59.0229 16.7199H60.7855V11.4399H59.0229H53.7354V14.9599H48.4479V4.39993H53.7354V7.91991H60.7855V2.63994H59.0229V0.879944H48.4479H43.1604V2.63994H41.3979V16.7199H43.1604V18.4799H59.0229V16.7199Z" fill="#509F63"/>
<path d="M69.5842 13.1999H71.3467V14.9599H73.1092V16.7199H74.8717V18.4799H83.6843V14.9599H81.9218V13.1999H80.1593V11.4399H78.3968V7.91991H80.1593V6.15992H81.9218V4.39993H83.6843V0.879944H81.9218H74.8717V2.63994H73.1092V4.39993H71.3467V6.15992H69.5842V0.879944H62.5342V18.4799H69.5842V13.1999Z" fill="#509F63"/>
<path d="M87.2231 18.4799H104.848V14.9599H92.5106V11.4399H97.7981V7.91991H92.5106V4.39993H104.848V0.879944H87.2231V2.63994H85.4606V16.7199H87.2231V18.4799Z" fill="#509F63"/>
<path d="M113.647 11.4399H118.934V18.4799H125.984V11.4399H124.222V7.91991H125.984V2.63994H124.222V0.879944H118.934H113.647H106.597V18.4799H113.647V11.4399ZM113.647 4.39993H118.934V7.91991H113.647V4.39993Z" fill="#509F63"/>
</g>
<path fill-rule="evenodd" clip-rule="evenodd" d="M7.93128 18.4799H0.881254V0.879996H18.5063V2.63999H20.2688V9.67996H18.5063V11.4399H7.93128V18.4799ZM8.81254 12.3199V19.3599H0V0H19.3876V1.75999H21.1363V0H40.5239V1.75999H42.2795V0H59.9046V1.75999H61.6533V0H70.4659V3.51998H72.2284V1.75999H73.9909V0H84.5659V5.27998H82.8034V7.03997H81.0409V8.79996H79.2784V10.56H81.0409V12.3199H82.8034V14.0799H84.5659V19.3599H73.9909V17.5999H72.2284V15.8399H70.4659V19.3599H61.6533V17.5999H59.9046V19.3599H42.2795V17.5999H40.5239V19.3599H21.1363V14.0799H26.4238V5.27998H21.1501V10.56H19.3876V12.3199H8.81254ZM40.517 14.0799V5.27998H35.2364V14.0799H40.517ZM61.6533 10.56V8.79996H52.8546V5.27998H49.3295V14.0799H52.8546V10.56H61.6533ZM12.3376 5.27998H8.81254V7.03997H12.3376V5.27998ZM22.0176 4.39998V0.879996H39.6426V4.39998H34.3551V14.9599H39.6426V18.4799H22.0176V14.9599H27.3051V4.39998H22.0176ZM59.0233 0.879996V2.63999H60.7858V7.91996H53.7358V4.39998H48.4483V14.9599H53.7358V11.4399H60.7858V16.7199H59.0233V18.4799H43.1608V16.7199H41.3983V2.63999H43.1608V0.879996H59.0233ZM69.5846 0.879996V6.15997H71.3471V4.39998H73.1096V2.63999H74.8721V0.879996H83.6847V4.39998H81.9222V6.15997H80.1597V7.91996H78.3971V11.4399H80.1597V13.1999H81.9222V14.9599H83.6847V18.4799H74.8721V16.7199H73.1096V14.9599H71.3471V13.1999H69.5846V18.4799H62.5346V0.879996H69.5846ZM86.3422 19.3599V17.5999H84.5797V1.75999H86.3422V0H125.104V1.75999H126.866V8.79996H125.104V10.56H126.866V19.3599H118.054V12.3199H114.529V19.3599H86.3422ZM105.716 14.0799V5.27998H93.3922V7.03997H98.6797V12.3199H93.3922V14.0799H105.716ZM104.849 14.9599V18.4799H87.2234V16.7199H85.4609V2.63999H87.2234V0.879996H104.849V4.39998H92.511V7.91996H97.7985V11.4399H92.511V14.9599H104.849ZM113.647 18.4799H106.597V0.879996H124.222V2.63999H125.985V7.91996H124.222V11.4399H125.985V18.4799H118.935V11.4399H113.647V18.4799ZM118.054 5.27998H114.529V7.03997H118.054V5.27998ZM7.93128 4.39998V7.91996H13.2188V4.39998H7.93128ZM113.647 4.39998V7.91996H118.935V4.39998H113.647Z" fill="black"/>
<path d="M141.211 10.2H142.011V7.8H141.211V6.2H142.011V3.8H141.211V3H136.411H133.211V11H141.211V10.2ZM136.411 7.8H138.811V9.4H136.411V7.8ZM136.411 4.6H138.811V6.2H136.411V4.6Z" fill="#D85959"/>
<path d="M143.605 11H151.605V9.4H146.005V7.8H148.405V6.2H146.005V4.6H151.605V3H143.605V3.8H142.805V10.2H143.605V11Z" fill="#D85959"/>
<path d="M157.998 4.6H160.398V3H152.398V4.6H154.798V11H157.998V4.6Z" fill="#D85959"/>
<path d="M164.395 7.8H166.795V11H169.995V3.8H169.195V3H166.795H161.995V3.8H161.195V11H164.395V7.8ZM164.395 4.6H166.795V6.2H164.395V4.6Z" fill="#D85959"/>
<defs>
<filter id="filter0_i" x="0.880859" y="0.879944" width="125.104" height="17.5999" filterUnits="userSpaceOnUse" color-interpolation-filters="sRGB">
<feFlood flood-opacity="0" result="BackgroundImageFix"/>
<feBlend mode="normal" in="SourceGraphic" in2="BackgroundImageFix" result="shape"/>
<feColorMatrix in="SourceAlpha" type="matrix" values="0 0 0 0 0 0 0 0 0 0 0 0 0 0 0 0 0 0 127 0" result="hardAlpha"/>
<feOffset dy="2"/>
<feComposite in2="hardAlpha" operator="arithmetic" k2="-1" k3="1"/>
<feColorMatrix type="matrix" values="0 0 0 0 0.537255 0 0 0 0 0.85098 0 0 0 0 0.611765 0 0 0 1 0"/>
<feBlend mode="normal" in2="shape" result="effect1_innerShadow"/>
</filter>
</defs>
</svg>
