<svg width="68" height="20" viewBox="0 0 68 20" fill="none" xmlns="http://www.w3.org/2000/svg">
    <path fill-rule="evenodd" clip-rule="evenodd" d="M6 1H9V4.2V5.99994H12V6.99994H15V9.53341H16V12.7334H14V10.9999H12V11.9999H9V13.8V17H6V14H3V11H0V7H3V4H6V1Z" fill="white"/>
    <path d="M28 2.5H35.5V3.75H36.75V7.5H35.5V8.75H36.75V13.75H35.5V15H28V2.5ZM30.5 3.75V7.5H34.25V3.75H30.5ZM30.5 8.75V13.75H34.25V8.75H30.5ZM38 6.25H45.5V7.5H46.75V15H39.25V13.75H38V10H39.25V8.75H44.25V7.5H38V6.25ZM40.5 10V13.75H44.25V10H40.5ZM48 7.5H49.25V6.25H55.5V7.5H56.75V8.75H54.25V7.5H50.5V13.75H54.25V12.5H56.75V13.75H55.5V15H49.25V13.75H48V7.5ZM58 2.5H60.5V10H63V8.75H64.25V6.25H66.75V8.75H65.5V10H64.25V11.25H65.5V12.5H66.75V15H64.25V12.5H63V11.25H60.5V15H58V2.5Z"
          fill="white"/>
</svg>
