<svg width="18" height="18" viewBox="0 0 18 18" fill="none" xmlns="http://www.w3.org/2000/svg">
    <rect width="2" height="2" fill="#838383"/>
    <rect x="2" y="2" width="2" height="2" fill="#838383"/>
    <rect x="4" y="4" width="2" height="2" fill="#838383"/>
    <rect x="6" y="6" width="2" height="2" fill="#838383"/>
    <rect x="8" y="8" width="2" height="2" fill="#838383"/>
    <rect x="10" y="10" width="2" height="2" fill="#838383"/>
    <rect x="12" y="12" width="2" height="2" fill="#838383"/>
    <rect x="14" y="14" width="2" height="2" fill="#838383"/>
    <rect x="16" y="16" width="2" height="2" fill="#838383"/>
    <rect width="2" height="2" transform="matrix(-1 0 0 1 18 0)" fill="#838383"/>
    <rect width="2" height="2" transform="matrix(-1 0 0 1 16 2)" fill="#838383"/>
    <rect width="2" height="2" transform="matrix(-1 0 0 1 14 4)" fill="#838383"/>
    <rect width="2" height="2" transform="matrix(-1 0 0 1 12 6)" fill="#838383"/>
    <rect width="2" height="2" transform="matrix(-1 0 0 1 8 10)" fill="#838383"/>
    <rect width="2" height="2" transform="matrix(-1 0 0 1 6 12)" fill="#838383"/>
    <rect width="2" height="2" transform="matrix(-1 0 0 1 4 14)" fill="#838383"/>
    <rect width="2" height="2" transform="matrix(-1 0 0 1 2 16)" fill="#838383"/>
</svg>
