<svg width="16" height="16" viewBox="0 0 16 16" fill="none" xmlns="http://www.w3.org/2000/svg">
    <rect x="3" width="10" height="1" fill="black"/>
    <rect x="3" y="15" width="10" height="1" fill="black"/>
    <rect x="1" y="2" width="1" height="1" fill="black"/>
    <rect x="2" y="1" width="1" height="1" fill="black"/>
    <rect x="14" y="2" width="1" height="1" fill="black"/>
    <rect x="13" y="1" width="1" height="1" fill="black"/>
    <rect x="1" y="13" width="1" height="1" fill="black"/>
    <rect x="2" y="14" width="1" height="1" fill="black"/>
    <rect width="1" height="1" transform="matrix(1 0 0 -1 13 15)" fill="black"/>
    <rect width="1" height="1" transform="matrix(1 0 0 -1 14 14)" fill="black"/>
    <rect x="3" y="1" width="2" height="1" fill="white"/>
    <rect x="2" y="2" width="2" height="1" fill="white"/>
    <rect x="1" y="3" width="1" height="10" fill="white"/>
    <rect x="5" y="1" width="1" height="1" fill="#FFE003"/>
    <rect x="4" y="2" width="2" height="1" fill="#FFE003"/>
    <rect x="2" y="3" width="4" height="9" fill="#FFE003"/>
    <rect x="2" y="12" width="4" height="1" fill="#FFE003"/>
    <rect x="2" y="13" width="3" height="1" fill="#FFE003"/>
    <rect x="3" y="14" width="1" height="1" fill="#FFE003"/>
    <rect x="6" y="1" width="7" height="14" fill="#EFB000"/>
    <rect x="13" y="2" width="1" height="12" fill="#EFB000"/>
    <rect x="14" y="3" width="1" height="10" fill="#EFB000"/>
    <rect x="6" y="12" width="1" height="3" fill="#EFB000"/>
    <rect x="5" y="13" width="1" height="2" fill="#EFB000"/>
    <rect x="4" y="14" width="1" height="1" fill="#EFB000"/>
    <rect y="3" width="1" height="10" fill="black"/>
    <rect x="15" y="3" width="1" height="10" fill="black"/>
    <path d="M4.5 5H5.5V4H7.5V2H8.5V4H10.5V5H11.5V6H9.5V5H8.5V7H10.5V8H11.5V11H10.5V12H8.5V14H7.5V12H5.5V11H4.5V10H6.5V11H7.5V8H5.5V7H4.5V5ZM6.5 5V7H7.5V5H6.5ZM8.5 8V11H9.5V8H8.5Z" fill="black"/>
</svg>
