<svg width="24" height="24" viewBox="0 0 24 24" fill="none" xmlns="http://www.w3.org/2000/svg">
    <rect x="3" y="7" width="2" height="2" fill="#838383"/>
    <rect width="2" height="2" transform="matrix(-1 4.37114e-08 4.37114e-08 1 21 7)" fill="#838383"/>
    <rect x="5" y="9" width="2" height="2" fill="#838383"/>
    <rect width="2" height="2" transform="matrix(-1 4.37114e-08 4.37114e-08 1 19 9)" fill="#838383"/>
    <rect x="7" y="11" width="2" height="2" fill="#838383"/>
    <rect width="2" height="2" transform="matrix(-1 4.37114e-08 4.37114e-08 1 17 11)" fill="#838383"/>
    <rect x="9" y="13" width="2" height="2" fill="#838383"/>
    <rect width="2" height="2" transform="matrix(-1 4.37114e-08 4.37114e-08 1 15 13)" fill="#838383"/>
    <rect x="11" y="15" width="2" height="2" fill="#838383"/>
</svg>
