<svg width="16" height="16" viewBox="0 0 16 16" fill="none" xmlns="http://www.w3.org/2000/svg">
    <rect x="3" width="10" height="1" fill="black"/>
    <rect x="3" y="15" width="10" height="1" fill="black"/>
    <rect x="1" y="2" width="1" height="1" fill="black"/>
    <rect x="2" y="1" width="1" height="1" fill="black"/>
    <rect x="14" y="2" width="1" height="1" fill="black"/>
    <rect x="13" y="1" width="1" height="1" fill="black"/>
    <rect x="1" y="13" width="1" height="1" fill="black"/>
    <rect x="2" y="14" width="1" height="1" fill="black"/>
    <rect width="1" height="1" transform="matrix(1 0 0 -1 13 15)" fill="black"/>
    <rect width="1" height="1" transform="matrix(1 0 0 -1 14 14)" fill="black"/>
    <rect x="3" y="1" width="2" height="1" fill="#838383"/>
    <rect x="2" y="2" width="2" height="1" fill="#838383"/>
    <rect x="1" y="3" width="1" height="10" fill="#838383"/>
    <rect x="5" y="1" width="2" height="1" fill="#4D4D4D"/>
    <rect x="4" y="2" width="3" height="1" fill="#4D4D4D"/>
    <rect x="2" y="3" width="5" height="9" fill="#4D4D4D"/>
    <rect x="2" y="12" width="4" height="1" fill="#4D4D4D"/>
    <rect x="2" y="13" width="3" height="1" fill="#4D4D4D"/>
    <rect x="3" y="14" width="1" height="1" fill="#4D4D4D"/>
    <rect x="7" y="1" width="6" height="14" fill="#4D4D4D"/>
    <rect x="13" y="2" width="1" height="12" fill="#4D4D4D"/>
    <rect x="14" y="3" width="1" height="10" fill="#4D4D4D"/>
    <rect x="6" y="12" width="1" height="3" fill="#4D4D4D"/>
    <rect x="5" y="13" width="1" height="2" fill="#4D4D4D"/>
    <rect x="4" y="14" width="1" height="1" fill="#4D4D4D"/>
    <rect y="3" width="1" height="10" fill="black"/>
    <rect x="15" y="3" width="1" height="10" fill="black"/>
    <path d="M6.125 6.75H8.375V11.25H9.125V12H7.625V11.25H6.875V7.5H6.125V6.75ZM6.875 4.5H8.375V6H6.875V4.5Z" fill="white"/>
</svg>
