<svg width="10" height="18" viewBox="0 0 10 18" fill="none" xmlns="http://www.w3.org/2000/svg">
    <rect y="18" width="2" height="2" transform="rotate(-90 0 18)" fill="#838383"/>
    <rect width="2" height="2" transform="matrix(4.37114e-08 1 1 -4.37114e-08 0 0)" fill="#838383"/>
    <rect x="2" y="16" width="2" height="2" transform="rotate(-90 2 16)" fill="#838383"/>
    <rect width="2" height="2" transform="matrix(4.37114e-08 1 1 -4.37114e-08 2 2)" fill="#838383"/>
    <rect x="4" y="14" width="2" height="2" transform="rotate(-90 4 14)" fill="#838383"/>
    <rect width="2" height="2" transform="matrix(4.37114e-08 1 1 -4.37114e-08 4 4)" fill="#838383"/>
    <rect x="6" y="12" width="2" height="2" transform="rotate(-90 6 12)" fill="#838383"/>
    <rect width="2" height="2" transform="matrix(4.37114e-08 1 1 -4.37114e-08 6 6)" fill="#838383"/>
    <rect x="8" y="10" width="2" height="2" transform="rotate(-90 8 10)" fill="#838383"/>
</svg>
