<svg width="40" height="40" viewBox="0 0 40 40" fill="none" xmlns="http://www.w3.org/2000/svg">
<path d="M6 2.00003H12.0001V4.00005H6V2.00003Z" fill="#838383"/>
<path d="M3.99609 4.00003H7.99618V8.00006H3.99609V4.00003Z" fill="#838383"/>
<path d="M2 6.00006H4.00004V34.0003H2V6.00006Z" fill="#838383"/>
<path d="M12 2.00003H16.0001V4.00005H12V2.00003Z" fill="#4D4D4D"/>
<path d="M8 4.00003H16.0002V8.00006H8V4.00003Z" fill="#4D4D4D"/>
<path d="M3.99609 8.00006H15.9964V30.0003H3.99609V8.00006Z" fill="#4D4D4D"/>
<path d="M3.99609 30.0002H15.9964V34.0003H3.99609V30.0002Z" fill="#4D4D4D"/>
<path d="M3.99609 34.0003H11.9963V38.0003H3.99609V34.0003Z" fill="#4D4D4D"/>
<path d="M16 2.00003H32.0004V38.0003H16V2.00003Z" fill="#323232"/>
<path d="M34 4.00003H36V36.0003H34V4.00003Z" fill="#323232"/>
<path d="M32 2.00003H34V38.0003H32V2.00003Z" fill="#323232"/>
<path d="M36 6.00006H38V34.0003H36V6.00006Z" fill="#323232"/>
<path d="M14 32.0003H16V38.0003H14V32.0003Z" fill="#323232"/>
<path d="M12 34.0003H14V38.0003H12V34.0003Z" fill="#323232"/>
<path d="M10 36.0003H12V38.0003H10V36.0003Z" fill="#323232"/>
<path d="M6 38.0003H34.0006V40.0004H6V38.0003Z" fill="black"/>
<path d="M6 0H34.0006V2.00002H6V0Z" fill="black"/>
<path d="M36 4.00003H38V6.00005H36V4.00003Z" fill="black"/>
<path d="M2 4.00003H4.00004V6.00005H2V4.00003Z" fill="black"/>
<path d="M34 2.00003H36V4.00005H34V2.00003Z" fill="black"/>
<path d="M3.99609 2.00003H5.99614V4.00005H3.99609V2.00003Z" fill="black"/>
<path d="M3.99609 36.0003H5.99614V38.0003H3.99609V36.0003Z" fill="black"/>
<path d="M2 34.0003H4.00004V36.0003H2V34.0003Z" fill="black"/>
<path d="M34 38.0003H36V36.0003H34V38.0003Z" fill="black"/>
<path d="M36 36.0003H38V34.0003H36V36.0003Z" fill="black"/>
<path d="M0 6.00006H2.00004V34.0003H0V6.00006Z" fill="black"/>
<path d="M38 6.00006H40V34.0003H38V6.00006Z" fill="black"/>
<path d="M19 13H22V23.5H19V13ZM19 25H22V28H19V25Z" fill="white"/>
</svg>
