<svg width="10" height="18" viewBox="0 0 10 18" fill="none" xmlns="http://www.w3.org/2000/svg">
    <rect x="10" width="2" height="2" transform="rotate(90 10 0)" fill="#247237"/>
    <rect width="2" height="2" transform="matrix(4.37114e-08 -1 -1 -4.37114e-08 10 18)" fill="#247237"/>
    <rect x="8" y="2" width="2" height="2" transform="rotate(90 8 2)" fill="#247237"/>
    <rect width="2" height="2" transform="matrix(4.37114e-08 -1 -1 -4.37114e-08 8 16)" fill="#247237"/>
    <rect x="6" y="4" width="2" height="2" transform="rotate(90 6 4)" fill="#247237"/>
    <rect width="2" height="2" transform="matrix(4.37114e-08 -1 -1 -4.37114e-08 6 14)" fill="#247237"/>
    <rect x="4" y="6" width="2" height="2" transform="rotate(90 4 6)" fill="#247237"/>
    <rect width="2" height="2" transform="matrix(4.37114e-08 -1 -1 -4.37114e-08 4 12)" fill="#247237"/>
    <rect x="2" y="8" width="2" height="2" transform="rotate(90 2 8)" fill="#247237"/>
</svg>
