<svg width="16" height="17" viewBox="0 0 16 17" fill="none" xmlns="http://www.w3.org/2000/svg">
    <rect x="10" y="1" width="1" height="1" fill="black"/>
    <rect x="11" y="2" width="1" height="1" fill="black"/>
    <rect width="1" height="1" transform="matrix(-1 0 0 1 6 1)" fill="black"/>
    <rect width="1" height="1" transform="matrix(-1 0 0 1 5 2)" fill="black"/>
    <rect x="12" y="3" width="1" height="4" fill="black"/>
    <rect x="3" y="3" width="1" height="4" fill="black"/>
    <rect x="4" y="7" width="1" height="1" fill="black"/>
    <rect x="5" y="8" width="1" height="1" fill="black"/>
    <rect x="10" y="8" width="1" height="1" fill="black"/>
    <rect x="11" y="7" width="1" height="1" fill="black"/>
    <rect x="6" y="9" width="4" height="1" fill="black"/>
    <rect x="4" y="10" width="8" height="1" fill="black"/>
    <rect x="3" y="11" width="1" height="1" fill="black"/>
    <rect x="2" y="12" width="1" height="1" fill="black"/>
    <rect x="1" y="13" width="1" height="1" fill="black"/>
    <rect x="12" y="11" width="1" height="1" fill="black"/>
    <rect x="13" y="12" width="1" height="1" fill="black"/>
    <rect x="14" y="13" width="1" height="1" fill="black"/>
    <rect x="15" y="14" width="1" height="2" fill="black"/>
    <rect y="14" width="1" height="2" fill="black"/>
    <rect x="1" y="16" width="14" height="1" fill="black"/>
    <rect x="6" y="1" width="4" height="1" fill="#838383"/>
    <rect x="6" y="8" width="4" height="1" fill="#838383"/>
    <rect x="5" y="2" width="6" height="1" fill="#838383"/>
    <rect x="5" y="7" width="6" height="1" fill="#838383"/>
    <rect x="4" y="3" width="8" height="4" fill="#838383"/>
    <rect x="4" y="11" width="8" height="1" fill="#838383"/>
    <rect x="3" y="12" width="10" height="1" fill="#838383"/>
    <rect x="2" y="13" width="12" height="1" fill="#838383"/>
    <rect x="1" y="14" width="14" height="2" fill="#838383"/>
    <rect x="6" width="4" height="1" fill="black"/>
</svg>
