<svg width="16" height="16" viewBox="0 0 16 16" fill="none" xmlns="http://www.w3.org/2000/svg">
    <rect x="3" width="10" height="1" fill="black"/>
    <rect x="3" y="15" width="10" height="1" fill="black"/>
    <rect x="1" y="2" width="1" height="1" fill="black"/>
    <rect x="2" y="1" width="1" height="1" fill="black"/>
    <rect x="14" y="2" width="1" height="1" fill="black"/>
    <rect x="13" y="1" width="1" height="1" fill="black"/>
    <rect x="1" y="13" width="1" height="1" fill="black"/>
    <rect x="2" y="14" width="1" height="1" fill="black"/>
    <rect width="1" height="1" transform="matrix(1 0 0 -1 13 15)" fill="black"/>
    <rect width="1" height="1" transform="matrix(1 0 0 -1 14 14)" fill="black"/>
    <rect x="3" y="1" width="2" height="1" fill="#89D99C"/>
    <rect x="2" y="2" width="2" height="1" fill="#89D99C"/>
    <rect x="1" y="3" width="2" height="10" fill="#89D99C"/>
    <rect x="5" y="1" width="2" height="1" fill="#509F63"/>
    <rect x="4" y="2" width="3" height="1" fill="#509F63"/>
    <rect x="3" y="3" width="4" height="9" fill="#509F63"/>
    <rect x="3" y="12" width="3" height="1" fill="#509F63"/>
    <rect x="2" y="13" width="3" height="1" fill="#509F63"/>
    <rect x="3" y="14" width="1" height="1" fill="#509F63"/>
    <rect x="7" y="1" width="6" height="14" fill="#247237"/>
    <rect x="13" y="2" width="1" height="12" fill="#247237"/>
    <rect x="14" y="3" width="1" height="10" fill="#247237"/>
    <rect x="6" y="12" width="1" height="3" fill="#247237"/>
    <rect x="5" y="13" width="1" height="2" fill="#247237"/>
    <rect x="4" y="14" width="1" height="1" fill="#247237"/>
    <rect y="3" width="1" height="10" fill="black"/>
    <rect x="15" y="3" width="1" height="10" fill="black"/>
    <path d="M4.5 4H5.5V3H10.5V4H11.5V12H10.5V13H9.5V14H11.5V15H8.5V14H7.5V13H5.5V12H4.5V4ZM6.5 4V12H9.5V4H6.5Z" fill="black"/>
</svg>
