<svg width="62" height="16" viewBox="0 0 62 16" fill="none" xmlns="http://www.w3.org/2000/svg">
    <path d="M0 3H1V2H6V3H7V4H5V3H2V6H6V7H7V11H6V12H1V11H0V10H2V11H5V7H1V6H0V3ZM8 2H10V6H11V5H14V6H15V12H13V6H11V7H10V12H8V2ZM16 5H22V6H23V12H17V11H16V8H17V7H21V6H16V5ZM18 8V11H21V8H18ZM24 5H26V6H27V5H30V6H31V8H29V6H27V7H26V12H24V5ZM32 6H33V5H38V6H39V8H34V11H37V10H39V11H38V12H33V11H32V6ZM34 6V7H37V6H34Z"
          fill="white"/>
    <path d="M56 5H54V7H56V5Z" fill="white"/>
    <path d="M54 7H52V9H54V7Z" fill="white"/>
    <path d="M58 3H56V5H58V3Z" fill="white"/>
    <path d="M48 6V10H52V6H48Z" fill="white"/>
    <path d="M58 0V3H61V0H58Z" fill="white"/>
    <path d="M58 16H61V13H58V16Z" fill="white"/>
    <path d="M56 9H54V11H56V9Z" fill="white"/>
    <path d="M58 11H56V13H58V11Z" fill="white"/>
</svg>
