<svg width="18" height="18" viewBox="0 0 18 18" fill="none" xmlns="http://www.w3.org/2000/svg">
    <rect y="5" width="6" height="1" fill="black"/>
    <rect x="12" y="5" width="6" height="1" fill="black"/>
    <rect x="6" y="3" width="1" height="2" fill="black"/>
    <rect x="7" y="1" width="1" height="2" fill="black"/>
    <rect x="8" width="2" height="1" fill="black"/>
    <rect x="10" y="1" width="1" height="2" fill="black"/>
    <rect x="11" y="3" width="1" height="2" fill="black"/>
    <rect x="1" y="7" width="1" height="1" fill="black"/>
    <rect width="1" height="1" transform="matrix(-1 0 0 1 17 7)" fill="black"/>
    <rect y="6" width="1" height="1" fill="black"/>
    <rect width="1" height="1" transform="matrix(-1 0 0 1 18 6)" fill="black"/>
    <rect x="2" y="8" width="1" height="1" fill="black"/>
    <rect width="1" height="1" transform="matrix(-1 0 0 1 16 8)" fill="black"/>
    <rect x="3" y="9" width="1" height="1" fill="black"/>
    <rect x="3" y="12" width="1" height="3" fill="black"/>
    <rect x="14" y="12" width="1" height="3" fill="black"/>
    <rect width="1" height="1" transform="matrix(-1 0 0 1 15 9)" fill="black"/>
    <rect width="1" height="2" transform="matrix(-1 0 0 1 14 10)" fill="black"/>
    <rect width="1" height="2" transform="matrix(-1 0 0 1 5 10)" fill="black"/>
    <rect x="2" y="15" width="1" height="2" fill="black"/>
    <rect x="15" y="15" width="1" height="2" fill="black"/>
    <rect x="3" y="17" width="2" height="1" fill="black"/>
    <rect x="5" y="16" width="1" height="1" fill="black"/>
    <rect x="6" y="15" width="2" height="1" fill="black"/>
    <rect x="8" y="14" width="2" height="1" fill="black"/>
    <rect x="10" y="15" width="2" height="1" fill="black"/>
    <rect x="12" y="16" width="1" height="1" fill="black"/>
    <rect x="13" y="17" width="2" height="1" fill="black"/>
    <rect x="8" y="1" width="2" height="1" fill="white"/>
    <rect x="8" y="2" width="1" height="1" fill="white"/>
    <rect x="7" y="3" width="1" height="2" fill="white"/>
    <rect x="6" y="5" width="1" height="1" fill="white"/>
    <rect x="1" y="6" width="5" height="1" fill="white"/>
    <rect x="2" y="7" width="1" height="1" fill="white"/>
    <rect x="3" y="8" width="1" height="1" fill="white"/>
    <rect x="4" y="9" width="1" height="1" fill="white"/>
    <rect x="5" y="10" width="1" height="2" fill="white"/>
    <rect x="4" y="12" width="1" height="3" fill="white"/>
    <rect x="3" y="15" width="1" height="2" fill="white"/>
    <rect x="7" y="7" width="1" height="2" fill="white"/>
    <rect x="8" y="6" width="1" height="1" fill="white"/>
    <rect x="16" y="6" width="1" height="1" fill="#EFB000"/>
    <rect x="15" y="7" width="1" height="1" fill="#EFB000"/>
    <rect x="14" y="8" width="1" height="1" fill="#EFB000"/>
    <rect x="13" y="9" width="1" height="1" fill="#EFB000"/>
    <rect x="12" y="10" width="1" height="2" fill="#EFB000"/>
    <rect x="13" y="12" width="1" height="3" fill="#EFB000"/>
    <rect x="14" y="15" width="1" height="2" fill="#EFB000"/>
    <rect x="13" y="16" width="1" height="1" fill="#EFB000"/>
    <rect x="12" y="15" width="1" height="1" fill="#EFB000"/>
    <rect x="10" y="14" width="2" height="1" fill="#EFB000"/>
    <rect x="8" y="13" width="2" height="1" fill="#EFB000"/>
    <rect x="6" y="14" width="2" height="1" fill="#EFB000"/>
    <rect x="5" y="15" width="1" height="1" fill="#EFB000"/>
    <rect x="4" y="16" width="1" height="1" fill="#EFB000"/>
    <rect x="9" y="2" width="1" height="1" fill="#FFE003"/>
    <rect x="8" y="3" width="3" height="2" fill="#FFE003"/>
    <rect x="7" y="5" width="5" height="1" fill="#FFE003"/>
    <rect x="6" y="6" width="2" height="1" fill="#FFE003"/>
    <rect x="9" y="6" width="7" height="1" fill="#FFE003"/>
    <rect x="3" y="7" width="4" height="1" fill="#FFE003"/>
    <rect x="8" y="7" width="7" height="1" fill="#FFE003"/>
    <rect x="4" y="8" width="3" height="1" fill="#FFE003"/>
    <rect x="8" y="8" width="6" height="1" fill="#FFE003"/>
    <rect x="5" y="9" width="8" height="1" fill="#FFE003"/>
    <rect x="6" y="10" width="6" height="2" fill="#FFE003"/>
    <rect x="5" y="12" width="8" height="1" fill="#FFE003"/>
    <rect x="5" y="13" width="3" height="1" fill="#FFE003"/>
    <rect x="10" y="13" width="3" height="1" fill="#FFE003"/>
    <rect x="5" y="14" width="1" height="1" fill="#FFE003"/>
    <rect x="12" y="14" width="1" height="1" fill="#FFE003"/>
    <rect x="4" y="15" width="1" height="1" fill="#FFE003"/>
    <rect x="13" y="15" width="1" height="1" fill="#FFE003"/>
</svg>
