<svg width="24" height="24" viewBox="0 0 24 24" fill="none" xmlns="http://www.w3.org/2000/svg">
    <rect x="21" y="17" width="2" height="2" transform="rotate(180 21 17)" fill="#838383"/>
    <rect width="2" height="2" transform="matrix(1 -4.37114e-08 -4.37114e-08 -1 3 17)" fill="#838383"/>
    <rect x="19" y="15" width="2" height="2" transform="rotate(180 19 15)" fill="#838383"/>
    <rect width="2" height="2" transform="matrix(1 -4.37114e-08 -4.37114e-08 -1 5 15)" fill="#838383"/>
    <rect x="17" y="13" width="2" height="2" transform="rotate(180 17 13)" fill="#838383"/>
    <rect width="2" height="2" transform="matrix(1 -4.37114e-08 -4.37114e-08 -1 7 13)" fill="#838383"/>
    <rect x="15" y="11" width="2" height="2" transform="rotate(180 15 11)" fill="#838383"/>
    <rect width="2" height="2" transform="matrix(1 -4.37114e-08 -4.37114e-08 -1 9 11)" fill="#838383"/>
    <rect x="13" y="9" width="2" height="2" transform="rotate(180 13 9)" fill="#838383"/>
</svg>
